#N canvas 748 22 354 378 10;
#N canvas 1125 388 450 300 bpm 0;
#X obj 92 92 metro 120;
#X obj 127 116 + 1;
#X obj 92 116 int;
#X floatatom 127 179 5 0 0 0 - - -;
#X obj 127 206 outlet;
#X obj 92 34 inlet;
#X obj 143 34 inlet;
#X obj 127 145 mod 8;
#X connect 0 0 2 0;
#X connect 1 0 7 0;
#X connect 2 0 1 0;
#X connect 3 0 2 1;
#X connect 3 0 4 0;
#X connect 5 0 0 0;
#X connect 6 0 0 1;
#X connect 7 0 3 0;
#X restore -3 -162 pd bpm;
#X obj 42 -162 s bpm;
#X obj -3 -187 tgl 15 0 empty empty empty 17 7 0 10 -262144 -1 -1 1
1;
#X obj -3 -85 tgl 20 0 empty empty empty 17 7 0 10 -262144 -1 -1 1
1;
#X obj 18 -85 tgl 20 0 empty empty empty 17 7 0 10 -262144 -1 -1 0
1;
#X obj 39 -85 tgl 20 0 empty empty empty 17 7 0 10 -262144 -1 -1 1
1;
#X obj 60 -85 tgl 20 0 empty empty empty 17 7 0 10 -262144 -1 -1 0
1;
#X obj 81 -85 tgl 20 0 empty empty empty 17 7 0 10 -262144 -1 -1 0
1;
#X obj 102 -85 tgl 20 0 empty empty empty 17 7 0 10 -262144 -1 -1 1
1;
#X obj 123 -85 tgl 20 0 empty empty empty 17 7 0 10 -262144 -1 -1 1
1;
#X obj 144 -85 tgl 20 0 empty empty empty 17 7 0 10 -262144 -1 -1 0
1;
#X obj -3 -58 s step;
#N canvas 907 531 729 402 stepsequencer 0;
#X obj 250 5 inlet;
#X obj 287 5 inlet;
#X obj 324 5 inlet;
#X obj 361 5 inlet;
#X obj 398 5 inlet;
#X obj 435 5 inlet;
#X obj 472 5 inlet;
#X obj 509 5 inlet;
#X obj 250 25 tgl 15 0 empty empty empty 17 7 0 10 -262144 -1 -1 1
1;
#X obj 287 25 tgl 15 0 empty empty empty 17 7 0 10 -262144 -1 -1 0
1;
#X obj 324 25 tgl 15 0 empty empty empty 17 7 0 10 -262144 -1 -1 1
1;
#X obj 361 25 tgl 15 0 empty empty empty 17 7 0 10 -262144 -1 -1 0
1;
#X obj 398 25 tgl 15 0 empty empty empty 17 7 0 10 -262144 -1 -1 0
1;
#X obj 435 26 tgl 15 0 empty empty empty 17 7 0 10 -262144 -1 -1 1
1;
#X obj 472 26 tgl 15 0 empty empty empty 17 7 0 10 -262144 -1 -1 1
1;
#X obj 509 26 tgl 15 0 empty empty empty 17 7 0 10 -262144 -1 -1 0
1;
#X obj 199 78 r step;
#X msg 250 44 1;
#X obj 511 173 tgl 15 0 empty empty empty 17 7 0 10 -262144 -1 -1 1
1;
#X msg 287 44 2;
#X msg 324 44 3;
#X msg 361 44 4;
#X msg 398 45 5;
#X msg 435 46 6;
#X msg 472 46 7;
#X msg 509 46 8;
#X obj 527 173 tgl 15 0 empty empty empty 17 7 0 10 -262144 -1 -1 0
1;
#X obj 544 173 tgl 15 0 empty empty empty 17 7 0 10 -262144 -1 -1 1
1;
#X obj 561 173 tgl 15 0 empty empty empty 17 7 0 10 -262144 -1 -1 1
1;
#X obj 577 173 tgl 15 0 empty empty empty 17 7 0 10 -262144 -1 -1 1
1;
#X obj 594 173 tgl 15 0 empty empty empty 17 7 0 10 -262144 -1 -1 0
1;
#X obj 611 173 tgl 15 0 empty empty empty 17 7 0 10 -262144 -1 -1 1
1;
#X obj 627 173 tgl 15 0 empty empty empty 17 7 0 10 -262144 -1 -1 1
1;
#N canvas 1053 530 485 516 drums 0;
#X msg 130 208 goto \$1 \, this;
#X floatatom 130 177 5 0 0 0 - - -;
#X obj 130 251 msgfile;
#X obj 130 323 readsf~;
#X obj 130 357 dac~;
#X msg 130 122 bang;
#X msg 130 297 open \$1 \, 1;
#X msg 231 208 read drums.txt cr;
#X obj 130 85 inlet;
#X obj 231 185 loadbang;
#X obj 195 151 + 1;
#X obj 221 151 s drum1;
#X obj 130 151 random 22;
#X connect 0 0 2 0;
#X connect 1 0 0 0;
#X connect 2 0 6 0;
#X connect 3 0 4 0;
#X connect 3 0 4 1;
#X connect 5 0 12 0;
#X connect 6 0 3 0;
#X connect 7 0 2 0;
#X connect 8 0 5 0;
#X connect 9 0 7 0;
#X connect 10 0 11 0;
#X connect 12 0 1 0;
#X connect 12 0 10 0;
#X restore 199 338 pd drums;
#X obj 199 103 + 1;
#X floatatom 199 126 5 0 0 0 - - -;
#X obj 199 174 bng 15 250 50 0 empty empty empty 17 7 0 10 -262144
-1 -1;
#X obj 199 319 bng 15 250 50 0 empty empty empty 17 7 0 10 -262144
-1 -1;
#X obj 199 296 spigot;
#X obj 215 174 bng 15 250 50 0 empty empty empty 17 7 0 10 -262144
-1 -1;
#X obj 232 174 bng 15 250 50 0 empty empty empty 17 7 0 10 -262144
-1 -1;
#X obj 249 174 bng 15 250 50 0 empty empty empty 17 7 0 10 -262144
-1 -1;
#X obj 265 174 bng 15 250 50 0 empty empty empty 17 7 0 10 -262144
-1 -1;
#X obj 282 174 bng 15 250 50 0 empty empty empty 17 7 0 10 -262144
-1 -1;
#X obj 299 174 bng 15 250 50 0 empty empty empty 17 7 0 10 -262144
-1 -1;
#X obj 315 174 bng 15 250 50 0 empty empty empty 17 7 0 10 -262144
-1 -1;
#X obj 255 319 bng 15 250 50 0 empty empty empty 17 7 0 10 -262144
-1 -1;
#X obj 255 296 spigot;
#X obj 312 319 bng 15 250 50 0 empty empty empty 17 7 0 10 -262144
-1 -1;
#X obj 312 296 spigot;
#X obj 368 319 bng 15 250 50 0 empty empty empty 17 7 0 10 -262144
-1 -1;
#X obj 368 296 spigot;
#X obj 425 318 bng 15 250 50 0 empty empty empty 17 7 0 10 -262144
-1 -1;
#X obj 425 295 spigot;
#X obj 481 318 bng 15 250 50 0 empty empty empty 17 7 0 10 -262144
-1 -1;
#X obj 481 295 spigot;
#X obj 538 318 bng 15 250 50 0 empty empty empty 17 7 0 10 -262144
-1 -1;
#X obj 538 295 spigot;
#X obj 594 318 bng 15 250 50 0 empty empty empty 17 7 0 10 -262144
-1 -1;
#X obj 594 295 spigot;
#N canvas 18 556 485 516 drums 0;
#X msg 130 208 goto \$1 \, this;
#X floatatom 130 177 5 0 0 0 - - -;
#X obj 130 251 msgfile;
#X obj 130 323 readsf~;
#X obj 130 357 dac~;
#X msg 130 122 bang;
#X msg 130 297 open \$1 \, 1;
#X msg 231 208 read drums.txt cr;
#X obj 130 85 inlet;
#X obj 231 185 loadbang;
#X obj 195 151 + 1;
#X obj 221 151 s drum2;
#X obj 130 151 random 22;
#X connect 0 0 2 0;
#X connect 1 0 0 0;
#X connect 2 0 6 0;
#X connect 3 0 4 0;
#X connect 3 0 4 1;
#X connect 5 0 12 0;
#X connect 6 0 3 0;
#X connect 7 0 2 0;
#X connect 8 0 5 0;
#X connect 9 0 7 0;
#X connect 10 0 11 0;
#X connect 12 0 1 0;
#X connect 12 0 10 0;
#X restore 255 338 pd drums;
#N canvas 18 556 485 516 drums 0;
#X msg 130 208 goto \$1 \, this;
#X floatatom 130 177 5 0 0 0 - - -;
#X obj 130 251 msgfile;
#X obj 130 323 readsf~;
#X obj 130 357 dac~;
#X msg 130 122 bang;
#X msg 130 297 open \$1 \, 1;
#X msg 231 208 read drums.txt cr;
#X obj 130 85 inlet;
#X obj 231 185 loadbang;
#X obj 195 151 + 1;
#X obj 221 151 s drum3;
#X obj 130 151 random 22;
#X connect 0 0 2 0;
#X connect 1 0 0 0;
#X connect 2 0 6 0;
#X connect 3 0 4 0;
#X connect 3 0 4 1;
#X connect 5 0 12 0;
#X connect 6 0 3 0;
#X connect 7 0 2 0;
#X connect 8 0 5 0;
#X connect 9 0 7 0;
#X connect 10 0 11 0;
#X connect 12 0 1 0;
#X connect 12 0 10 0;
#X restore 312 338 pd drums;
#N canvas 18 556 485 516 drums 0;
#X msg 130 208 goto \$1 \, this;
#X floatatom 130 177 5 0 0 0 - - -;
#X obj 130 251 msgfile;
#X obj 130 323 readsf~;
#X obj 130 357 dac~;
#X msg 130 122 bang;
#X msg 130 297 open \$1 \, 1;
#X msg 231 208 read drums.txt cr;
#X obj 130 85 inlet;
#X obj 231 185 loadbang;
#X obj 195 151 + 1;
#X obj 221 151 s drum4;
#X obj 130 151 random 22;
#X connect 0 0 2 0;
#X connect 1 0 0 0;
#X connect 2 0 6 0;
#X connect 3 0 4 0;
#X connect 3 0 4 1;
#X connect 5 0 12 0;
#X connect 6 0 3 0;
#X connect 7 0 2 0;
#X connect 8 0 5 0;
#X connect 9 0 7 0;
#X connect 10 0 11 0;
#X connect 12 0 1 0;
#X connect 12 0 10 0;
#X restore 368 338 pd drums;
#N canvas 18 556 485 516 drums 0;
#X msg 130 208 goto \$1 \, this;
#X floatatom 130 177 5 0 0 0 - - -;
#X obj 130 251 msgfile;
#X obj 130 323 readsf~;
#X obj 130 357 dac~;
#X msg 130 122 bang;
#X msg 130 297 open \$1 \, 1;
#X msg 231 208 read drums.txt cr;
#X obj 130 85 inlet;
#X obj 231 185 loadbang;
#X obj 195 151 + 1;
#X obj 221 151 s drum5;
#X obj 130 151 random 22;
#X connect 0 0 2 0;
#X connect 1 0 0 0;
#X connect 2 0 6 0;
#X connect 3 0 4 0;
#X connect 3 0 4 1;
#X connect 5 0 12 0;
#X connect 6 0 3 0;
#X connect 7 0 2 0;
#X connect 8 0 5 0;
#X connect 9 0 7 0;
#X connect 10 0 11 0;
#X connect 12 0 1 0;
#X connect 12 0 10 0;
#X restore 425 338 pd drums;
#N canvas 18 556 485 516 drums 0;
#X msg 130 208 goto \$1 \, this;
#X floatatom 130 177 5 0 0 0 - - -;
#X obj 130 251 msgfile;
#X obj 130 323 readsf~;
#X obj 130 357 dac~;
#X msg 130 122 bang;
#X msg 130 297 open \$1 \, 1;
#X msg 231 208 read drums.txt cr;
#X obj 130 85 inlet;
#X obj 231 185 loadbang;
#X obj 195 151 + 1;
#X obj 221 151 s drum6;
#X obj 130 151 random 22;
#X connect 0 0 2 0;
#X connect 1 0 0 0;
#X connect 2 0 6 0;
#X connect 3 0 4 0;
#X connect 3 0 4 1;
#X connect 5 0 12 0;
#X connect 6 0 3 0;
#X connect 7 0 2 0;
#X connect 8 0 5 0;
#X connect 9 0 7 0;
#X connect 10 0 11 0;
#X connect 12 0 1 0;
#X connect 12 0 10 0;
#X restore 481 338 pd drums;
#N canvas 18 556 485 516 drums 0;
#X msg 130 208 goto \$1 \, this;
#X floatatom 130 177 5 0 0 0 - - -;
#X obj 130 251 msgfile;
#X obj 130 323 readsf~;
#X obj 130 357 dac~;
#X msg 130 122 bang;
#X msg 130 297 open \$1 \, 1;
#X msg 231 208 read drums.txt cr;
#X obj 130 85 inlet;
#X obj 231 185 loadbang;
#X obj 195 151 + 1;
#X obj 221 151 s drum7;
#X obj 130 151 random 22;
#X connect 0 0 2 0;
#X connect 1 0 0 0;
#X connect 2 0 6 0;
#X connect 3 0 4 0;
#X connect 3 0 4 1;
#X connect 5 0 12 0;
#X connect 6 0 3 0;
#X connect 7 0 2 0;
#X connect 8 0 5 0;
#X connect 9 0 7 0;
#X connect 10 0 11 0;
#X connect 12 0 1 0;
#X connect 12 0 10 0;
#X restore 538 338 pd drums;
#N canvas 18 556 485 516 drums 0;
#X msg 130 208 goto \$1 \, this;
#X floatatom 130 177 5 0 0 0 - - -;
#X obj 130 251 msgfile;
#X obj 130 323 readsf~;
#X obj 130 357 dac~;
#X msg 130 122 bang;
#X msg 130 297 open \$1 \, 1;
#X msg 231 208 read drums.txt cr;
#X obj 130 85 inlet;
#X obj 231 185 loadbang;
#X obj 195 151 + 1;
#X obj 221 151 s drum8;
#X obj 130 151 random 22;
#X connect 0 0 2 0;
#X connect 1 0 0 0;
#X connect 2 0 6 0;
#X connect 3 0 4 0;
#X connect 3 0 4 1;
#X connect 5 0 12 0;
#X connect 6 0 3 0;
#X connect 7 0 2 0;
#X connect 8 0 5 0;
#X connect 9 0 7 0;
#X connect 10 0 11 0;
#X connect 12 0 1 0;
#X connect 12 0 10 0;
#X restore 594 338 pd drums;
#X obj 199 150 select 1 2 3 4 5 6 7 8;
#X obj 511 150 select 1 2 3 4 5 6 7 8;
#X connect 0 0 8 0;
#X connect 1 0 9 0;
#X connect 2 0 10 0;
#X connect 3 0 11 0;
#X connect 4 0 12 0;
#X connect 5 0 13 0;
#X connect 6 0 14 0;
#X connect 7 0 15 0;
#X connect 8 0 17 0;
#X connect 9 0 19 0;
#X connect 10 0 20 0;
#X connect 11 0 21 0;
#X connect 12 0 22 0;
#X connect 13 0 23 0;
#X connect 14 0 24 0;
#X connect 15 0 25 0;
#X connect 16 0 34 0;
#X connect 17 0 68 0;
#X connect 18 0 38 1;
#X connect 19 0 68 0;
#X connect 20 0 68 0;
#X connect 21 0 68 0;
#X connect 22 0 68 0;
#X connect 23 0 68 0;
#X connect 24 0 68 0;
#X connect 25 0 68 0;
#X connect 26 0 47 1;
#X connect 27 0 49 1;
#X connect 28 0 51 1;
#X connect 29 0 53 1;
#X connect 30 0 55 1;
#X connect 31 0 57 1;
#X connect 32 0 59 1;
#X connect 34 0 35 0;
#X connect 35 0 67 0;
#X connect 36 0 38 0;
#X connect 37 0 33 0;
#X connect 38 0 37 0;
#X connect 39 0 47 0;
#X connect 40 0 49 0;
#X connect 41 0 51 0;
#X connect 42 0 53 0;
#X connect 43 0 55 0;
#X connect 44 0 57 0;
#X connect 45 0 59 0;
#X connect 46 0 60 0;
#X connect 47 0 46 0;
#X connect 48 0 61 0;
#X connect 49 0 48 0;
#X connect 50 0 62 0;
#X connect 51 0 50 0;
#X connect 52 0 63 0;
#X connect 53 0 52 0;
#X connect 54 0 64 0;
#X connect 55 0 54 0;
#X connect 56 0 65 0;
#X connect 57 0 56 0;
#X connect 58 0 66 0;
#X connect 59 0 58 0;
#X connect 67 0 36 0;
#X connect 67 1 39 0;
#X connect 67 2 40 0;
#X connect 67 3 41 0;
#X connect 67 4 42 0;
#X connect 67 5 43 0;
#X connect 67 6 44 0;
#X connect 67 7 45 0;
#X connect 68 0 18 0;
#X connect 68 1 26 0;
#X connect 68 2 27 0;
#X connect 68 3 28 0;
#X connect 68 4 29 0;
#X connect 68 5 30 0;
#X connect 68 6 31 0;
#X connect 68 7 32 0;
#X restore 51 -58 pd stepsequencer;
#N canvas 968 339 484 592 randompatterns 0;
#X obj 94 33 r step;
#X obj 129 127 + 1;
#X floatatom 129 190 5 0 0 0 - - -;
#X obj 94 94 bng 15 250 50 0 empty empty empty 17 7 0 10 -262144 -1
-1;
#X obj 94 127 f;
#X obj 164 278 + 1;
#X obj 129 245 bng 15 250 50 0 empty empty empty 17 7 0 10 -262144
-1 -1;
#X obj 129 278 f;
#X obj 164 342 bng 15 250 50 0 empty empty empty 17 7 0 10 -262144
-1 -1;
#X obj 68 425 sel 1;
#X obj 68 447 tgl 15 0 empty empty empty 17 7 0 10 -262144 -1 -1 1
1;
#X obj 68 467 outlet;
#X obj 111 447 tgl 15 0 empty empty empty 17 7 0 10 -262144 -1 -1 0
1;
#X obj 111 467 outlet;
#X obj 111 425 sel 2;
#X obj 154 447 tgl 15 0 empty empty empty 17 7 0 10 -262144 -1 -1 1
1;
#X obj 154 467 outlet;
#X obj 197 447 tgl 15 0 empty empty empty 17 7 0 10 -262144 -1 -1 0
1;
#X obj 197 467 outlet;
#X obj 154 425 sel 3;
#X obj 197 425 sel 4;
#X obj 240 447 tgl 15 0 empty empty empty 17 7 0 10 -262144 -1 -1 0
1;
#X obj 240 467 outlet;
#X obj 283 447 tgl 15 0 empty empty empty 17 7 0 10 -262144 -1 -1 1
1;
#X obj 283 467 outlet;
#X obj 326 447 tgl 15 0 empty empty empty 17 7 0 10 -262144 -1 -1 1
1;
#X obj 326 467 outlet;
#X obj 369 447 tgl 15 0 empty empty empty 17 7 0 10 -262144 -1 -1 0
1;
#X obj 369 467 outlet;
#X obj 240 425 sel 5;
#X obj 283 425 sel 6;
#X obj 326 425 sel 7;
#X obj 369 425 sel 8;
#X floatatom 216 309 5 0 0 0 - - -;
#X obj 183 341 loadbang;
#X obj 325 260 tgl 15 0 empty empty empty 17 7 0 10 -262144 -1 -1 0
1;
#X obj 325 279 sel 1 0;
#X obj 325 327 s rythym;
#X obj 344 304 s melody;
#X obj 94 67 sel 7;
#X obj 129 158 mod 8;
#X obj 129 218 sel 7;
#X obj 164 309 mod 8;
#X obj 164 369 random 9;
#X connect 0 0 39 0;
#X connect 1 0 40 0;
#X connect 2 0 41 0;
#X connect 3 0 4 0;
#X connect 4 0 1 0;
#X connect 5 0 42 0;
#X connect 6 0 7 0;
#X connect 6 0 35 0;
#X connect 7 0 5 0;
#X connect 8 0 43 0;
#X connect 9 0 10 0;
#X connect 10 0 11 0;
#X connect 12 0 13 0;
#X connect 14 0 12 0;
#X connect 15 0 16 0;
#X connect 17 0 18 0;
#X connect 19 0 15 0;
#X connect 20 0 17 0;
#X connect 21 0 22 0;
#X connect 23 0 24 0;
#X connect 25 0 26 0;
#X connect 27 0 28 0;
#X connect 29 0 21 0;
#X connect 30 0 23 0;
#X connect 31 0 25 0;
#X connect 32 0 27 0;
#X connect 34 0 43 0;
#X connect 35 0 36 0;
#X connect 36 0 37 0;
#X connect 36 1 38 0;
#X connect 39 0 3 0;
#X connect 40 0 2 0;
#X connect 40 0 4 1;
#X connect 41 0 6 0;
#X connect 42 0 7 1;
#X connect 42 0 8 0;
#X connect 42 0 33 0;
#X connect 43 0 9 0;
#X connect 43 0 14 0;
#X connect 43 0 19 0;
#X connect 43 0 20 0;
#X connect 43 0 29 0;
#X connect 43 0 30 0;
#X connect 43 0 31 0;
#X connect 43 0 32 0;
#X restore 45 -133 pd randompatterns;
#X obj -26 -343 cnv 15 100 100 empty empty empty 20 12 0 14 -162280
-66577 0;
#X msg -3 -299 \; pd dsp \$1;
#X obj -3 -322 tgl 20 0 empty empty empty 25 8 0 8 -258699 -1 -1 1
1;
#X obj -3 -108 hradio 21 1 0 8 empty empty empty 0 -8 0 10 -258113
-1 -1 4;
#X obj -3 -224 loadbang;
#X msg 30 -187 240;
#X connect 0 0 17 0;
#X connect 2 0 0 0;
#X connect 3 0 12 0;
#X connect 4 0 12 1;
#X connect 5 0 12 2;
#X connect 6 0 12 3;
#X connect 7 0 12 4;
#X connect 8 0 12 5;
#X connect 9 0 12 6;
#X connect 10 0 12 7;
#X connect 13 0 3 0;
#X connect 13 1 4 0;
#X connect 13 2 5 0;
#X connect 13 3 6 0;
#X connect 13 4 7 0;
#X connect 13 5 8 0;
#X connect 13 6 9 0;
#X connect 13 7 10 0;
#X connect 16 0 15 0;
#X connect 17 0 11 0;
#X connect 18 0 16 0;
#X connect 18 0 19 0;
#X connect 18 0 2 0;
#X connect 19 0 0 1;
#X connect 19 0 1 0;
